<?xml version="1.0" encoding="UTF-8"?>
<svg id="Layer_1" data-name="Layer 1" xmlns="http://www.w3.org/2000/svg" viewBox="0 0 90.285468192440021 94.855470424708983">
  <defs>
    <style>
      .cls-1 {
        fill: #fff;
        stroke: #231f20;
        stroke-miterlimit: 10;
      }
    </style>
  </defs>
  <path class="cls-1" d="m.057666836684803.976994242553701C5.876946507400135.301326479797353,12.592802105849842.0161206387329,13.493789730971912,2.40871211517333c.975873947143555,2.591454982757568-5.677947998046875,6.178590297698975-4.735682487487793,8.700440883636475.923897743225098,2.472692489624023,8.35353946685791,1.787904739379883,22.466961860656738.770925521850586,19.456123352050781-1.401962280273438,22.394493103027344-1.329727172851562,23.237884521484375.33039665222168,1.702541351318359,3.351274490356445-5.646129608154297,12.161746978759766-14.647579193115234,17.400880813598633-15.298734664916992,8.90435791015625-27.122581481933594,2.691349029541016-34.691628456115723,12.334800720214844-1.033929824829102,1.317295074462891-4.686065673828125,6.367374420166016-3.524229049682617,12.22467041015625.751012802124023,3.786163330078125,3.445472717285156,7.566802978515625,6.938325881958008,9.2510986328125,10.942893028259277,5.276779174804688,28.889157295227051-10.424476623535156,34.47136402130127-15.308368682861328,8.636337280273438-7.555965423583984,9.280220031738281-10.886405944824219,20.044055938720703-19.273128509521484,7.890052795410156-6.147592544555664,14.776153564453125-11.388082504272461,19.603523254394531-9.03083610534668,5.328498840332031,2.601951599121094,4.903770446777344,12.876462936401367,4.845817565917969,13.986783981323242-.534286499023438,10.237030029296875-8.076171875,17.090869903564453-10.132164001464844,18.832599639892578-7.345771789550781,6.22296142578125-10.383865356445312,2.864028930664062-26.982376098632812,10.572689056396484-9.093944549560547,4.223396301269531-5.746658325195312,4.100624084472656-18.171806335449219,10.462554931640625-5.690826416015625,2.913818359375-9.387557983398438,4.472854614257812-10.682819366455078,8.370040893554688-1.010459899902344,3.040275573730469-.394466400146484,7.007225036621094,1.872245788574219,9.471366882324219,4.552257537841797,4.948753356933594,14.311885833740234,2.259422302246094,19.713657379150391.770927429199219,6.320709228515625-1.741714477539062,6.689579010009766-3.186317443847656,16.079292297363281-7.158592224121094,10.812515258789062-4.574188232421875,16.32171630859375-6.820976257324219,21.365638732910156-4.845817565917969,1.824386596679688.71441650390625,6.263572692871094,2.988700866699219,9.251106262207031,11.233482360839844"/>
</svg>