<?xml version="1.0" encoding="UTF-8"?>
<svg id="Layer_1" data-name="Layer 1" xmlns="http://www.w3.org/2000/svg" viewBox="0 0 91.501058747990101 90.15857479143051">
  <defs>
    <style>
      .cls-1 {
        fill: #fff;
        stroke: #231f20;
        stroke-miterlimit: 10;
      }
    </style>
  </defs>
  <path class="cls-1" d="m.330469817823541.375219535082579c1.672034025192261,1.472622632980347,4.514225721359253,3.614304304122925,8.480176687240601,4.84581446647644,3.795323371887207,1.178526878356934,6.682520866394043.921951293945312,18.061673164367676.220264434814453,10.270744323730469-.63333797454834,12.169120788574219-.686416625976562,13.325992584228516.770925521850586,2.649143218994141,3.337190628051758-1.621532440185547,10.775626182556152-2.643173217773438,12.555066108703613-3.622917175292969,6.310201644897461-9.076637268066406,10.294925689697266-13.766519546508789,13.656387329101562-6.367580413818359,4.563945770263672-8.982728958129883,5.014453887939453-10.682819366455078,8.810573577880859-1.523501396179199,3.401817321777344-1.754335403442383,8.244747161865234.660793304443359,10.462554931640625,1.705638885498047,1.5662841796875,3.637203216552734.818840026855469,8.810571670532227.881057739257812,9.835063934326172.1182861328125,10.851264953613281,2.915855407714844,15.308372497558594,1.431716918945312,5.636035919189453-1.876701354980469,10.110572814941406-8.380935668945312,8.920703887939453-12.444934844970703-.822971343994141-2.81085205078125-3.986400604248047-3.19317626953125-3.854625701904297-5.17620849609375.172489166259766-2.595710754394531,5.768413543701172-4.585945129394531,10.132156372070312-4.955947875976562,3.618030548095703-.306774139404297,11.505439758300781.066413879394531,13.436126708984375,4.62554931640625,1.242317199707031,2.933628082275391-.610130310058594,6.116443634033203-3.52423095703125,11.123348236083984-2.260162353515625,3.883331298828125-5.273548126220703,9.060825347900391-11.343612670898438,12.995594024658203-7.533790588378906,4.883594512939453-12.770744323730469,3.311779022216797-14.317180633544922,7.268726348876953-1.445629119873047,3.699012756347656,1.859691619873047,8.32513427734375,3.854625701904297,10.3524169921875,4.117538452148438,4.184310913085938,9.640235900878906,4.398239135742188,12.665199279785156,4.515419006347656,1.671249389648438.064735412597656,9.311187744140625.187614440917969,16.189430236816406-4.845809936523438,5.257354736328125-3.847274780273438,5.40399169921875-7.292655944824219,8.700439453125-7.488990783691406,5.20709228515625-.310127258300781,9.4488525390625,8.012229919433594,9.911888122558594,8.920707702636719,2.322044372558594,4.555870056152344,2.432853698730469,8.895965576171875,2.312782287597656,11.233474731445312"/>
</svg>