<?xml version="1.0" encoding="UTF-8"?>
<svg id="Layer_1" data-name="Layer 1" xmlns="http://www.w3.org/2000/svg" viewBox="0 0 93.975448860224787 92.870425198756493">
  <defs>
    <style>
      .cls-1 {
        fill: #fff;
        stroke: #231f20;
        stroke-miterlimit: 10;
      }
    </style>
  </defs>
  <path class="cls-1" d="m.348492116834677.358543225433095c7.824564933776855,7.605217456817627,14.327786445617676,13.627085208892822,18.832598686218262,17.731277942657471,7.349920272827148,6.696283340454102,13.491436004638672,14.743856430053711,21.365638732910156,20.814977645874023,3.449504852294922,2.659618377685547,7.174407958984375,5.224674224853516,7.59912109375,9.471366882324219.403953552246094,4.039142608642578-2.216098785400391,9.214412689208984-5.726875305175781,9.911891937255859-5.733623504638672,1.139087677001953-8.274200439453125-10.771240234375-19.933919906616211-14.096916198730469-.597475051879883-.170417785644531-10.045875549316406-2.739955902099609-14.647576332092285,2.092510223388672-2.080357551574707,2.184680938720703-2.23125171661377,5.164237976074219-2.533040046691895,11.123348236083984-.379657745361328,7.496707916259766-.600086212158203,11.849292755126953,2.092511177062988,16.189426422119141,2.906106948852539,4.684288024902344,7.460762977600098,6.541709899902344,11.674008369445801,8.259910583496094,2.471368789672852,1.007843017578125,8.632352828979492,3.428764343261719,16.62995719909668,2.202644348144531,1.217357635498047-.186630249023438,6.106334686279297-1.013565063476562,11.453742980957031-4.295150756835938,1.623405456542969-.996246337890625,3.418544769287109-2.298164367675781,10.572689056396484-10.242294311523438,9.944141387939453-11.042205810546875,10.935459136962891-13.478889465332031,11.453746795654297-15.748897552490234.355514526367188-1.557113647460938,1.342819213867188-6.15728759765625-.660797119140625-10.903083801269531-.733146667480469-1.736537933349609-1.844375610351562-3.439579010009766-10.572685241699219-10.462554931640625-4.649238586425781-3.740867614746094-6.950927734375-5.363340377807617-10.903083801269531-8.920703887939453-6.564632415771484-5.908868789672852-7.013259887695312-7.552295684814453-6.938327789306641-8.810571670532227.220355987548828-3.700213432312012,5.097545623779297-6.239400863647461,7.709251403808594-7.599119186401367,3.811664581298828-1.984448432922363,7.261634826660156-2.52445125579834,10.242290496826172-2.863436698913574,10.87158203125-1.236408233642578,16.23931884765625-2.377922058105469,20.814979553222656-.110132217407227,5.585090637207031,2.768081665039062,8.165130615234375,8.005293846130371,8.810569763183594,9.361233711242676,2.347244262695312,4.931112289428711,1.441551208496094,8.156257629394531-.110130310058594,27.643173217773438-.760787963867188,9.554347991943359-.449508666992188,7.604133605957031-.881057739257812,12.004402160644531-.974395751953125,9.9354248046875-2.079376220703125,14.963768005371094-1.651985168457031,23.3480224609375.246307373046875,4.831893920898438.861061096191406,8.022201538085938,2.97357177734375,11.013214111328125,1.8349609375,2.598045349121094,4.140228271484375,4.11163330078125,5.726875305175781,4.955947875976562"/>
</svg>