<?xml version="1.0" encoding="UTF-8"?>
<svg id="Layer_1" data-name="Layer 1" xmlns="http://www.w3.org/2000/svg" viewBox="0 0 95.293522707837838 92.85803404525177">
  <defs>
    <style>
      .cls-1 {
        fill: #fff;
        stroke: #231f20;
        stroke-miterlimit: 10;
      }
    </style>
  </defs>
  <path class="cls-1" d="m4.185021877288818.770925045013428c.09654712677002,49.307267189025879-.267070770263672,80.855710029602051-1.321585655212402,86.784138679504395-.089076995849609.500785827636719-.39898157119751,2.032524108886719.440528869628906,3.193832397460938,2.676093101501465,3.701873779296875,14.382424354553223-.025222778320312,17.07048511505127-.881057739257812,1.415069580078125-.450531005859375,2.122604370117188-.675804138183594,2.533039093017578-.881057739257812,12.315380096435547-6.158859252929688-15.614067077636719-73.476181030273438.33039665222168-84.030834197998047,6.104619979858398-4.041036605834961,16.000383377075195,1.986377716064453,17.621145248413086,2.973568916320801,17.795360565185547,10.838986396789551,16.761623382568359,42.01874828338623,11.453742980957031,43.942732810974121-4.433307647705078,1.606971740722656-12.295734405517578-17.033023834228516-17.290748596191406-15.198238372802734-4.374771118164062,1.606952667236328-2.88629150390625,17.573799133300781.991191864013672,29.185024261474609,2.277900695800781,6.821235656738281,5.884681701660156,17.621826171875,15.308368682861328,21.035240173339844.894004821777344.323822021484375,9.104206085205078,3.173927307128906,13.436122894287109-1.321586608886719,3.514785766601562-3.64752197265625,2.996650695800781-10.59515380859375-.110130310058594-14.427314758300781-4.929275512695312-6.080192565917969-15.799915313720703-3.608116149902344-16.079296112060547-5.72686767578125-.234523773193359-1.778564453125,7.506149291992188-2.909423828125,16.299556732177734-8.370048522949219,6.373504638671875-3.957881927490234,11.778770446777344-7.314502716064453,13.656387329101562-12.885459899902344,3.711837768554688-11.013156890869141-10.122276306152344-19.525314331054688-6.057266235351562-29.625551223754883,2.084457397460938-5.17920970916748,8.280921936035156-9.298942565917969,12.555068969726562-8.1497802734375,7.799949645996094,2.097124099731445,13.160423278808594,22.806707382202148,7.268722534179688,39.096914291381836-4.559455871582031,12.606616973876953-13.328140258789062,15.572536468505859-13.105728149414062,25.220264434814453.190185546875,8.249588012695312,6.802001953125,14.776885986328125,12.004402160644531,18.832603454589844"/>
</svg>